# xmcd CD database file
#
# Track frame offsets:
#	150
#	19682
#	39687
#
# Disc length: 788 seconds
#
# Revision: 2
# Processed by: cddbd v1.5.1PL0 Copyright (c) Steve Scherf et al.
# Submitted via: CDex 1.51
#
DISCID=1c031203
DTITLE=安倍麻美 - 情熱セツナ
DYEAR=2004
DGENRE=JPop
TTITLE0=情熱セツナ
TTITLE1=夏がくる前に
TTITLE2=情熱セツナ (Instrumental)
EXTD=YEAR: 2004/08/04
EXTT0=
EXTT1=
EXTT2=
PLAYORDER=
